<mxfile host="app.diagrams.net" modified="2023-03-30T13:45:56.203Z" agent="Mozilla/5.0 (Windows NT 10.0; Win64; x64) AppleWebKit/537.36 (KHTML, like Gecko) Chrome/111.0.0.0 Safari/537.36" etag="zezlzGM2Pt0neli8XbVo" version="21.1.2" type="device">
  <diagram id="C5RBs43oDa-KdzZeNtuy" name="Page-1">
    <mxGraphModel dx="1591" dy="1399" grid="0" gridSize="10" guides="1" tooltips="1" connect="1" arrows="1" fold="1" page="0" pageScale="1" pageWidth="827" pageHeight="1169" math="0" shadow="0">
      <root>
        <mxCell id="WIyWlLk6GJQsqaUBKTNV-0" />
        <mxCell id="WIyWlLk6GJQsqaUBKTNV-1" parent="WIyWlLk6GJQsqaUBKTNV-0" />
        <mxCell id="9vlINu2ijhQBHvUozJI8-331" value="" style="edgeStyle=orthogonalEdgeStyle;rounded=0;orthogonalLoop=1;jettySize=auto;html=1;entryX=0;entryY=0.5;entryDx=0;entryDy=0;exitX=1;exitY=0.5;exitDx=0;exitDy=0;" parent="WIyWlLk6GJQsqaUBKTNV-1" source="9vlINu2ijhQBHvUozJI8-223" target="9vlINu2ijhQBHvUozJI8-97" edge="1">
          <mxGeometry relative="1" as="geometry">
            <mxPoint x="1900" y="444.9999999999998" as="targetPoint" />
          </mxGeometry>
        </mxCell>
        <mxCell id="9vlINu2ijhQBHvUozJI8-0" value="Order" style="shape=table;startSize=30;container=1;collapsible=1;childLayout=tableLayout;fixedRows=1;rowLines=0;fontStyle=1;align=center;resizeLast=1;html=1;fillColor=#fff2cc;strokeColor=#d6b656;" parent="WIyWlLk6GJQsqaUBKTNV-1" vertex="1">
          <mxGeometry x="1590" y="163" width="190.03926355698582" height="539" as="geometry" />
        </mxCell>
        <mxCell id="9vlINu2ijhQBHvUozJI8-1" value="" style="shape=tableRow;horizontal=0;startSize=0;swimlaneHead=0;swimlaneBody=0;fillColor=none;collapsible=0;dropTarget=0;points=[[0,0.5],[1,0.5]];portConstraint=eastwest;top=0;left=0;right=0;bottom=1;" parent="9vlINu2ijhQBHvUozJI8-0" vertex="1">
          <mxGeometry y="30" width="190.03926355698582" height="30" as="geometry" />
        </mxCell>
        <mxCell id="9vlINu2ijhQBHvUozJI8-2" value="" style="shape=partialRectangle;connectable=0;fillColor=none;top=0;left=0;bottom=0;right=0;fontStyle=1;overflow=hidden;whiteSpace=wrap;html=1;" parent="9vlINu2ijhQBHvUozJI8-1" vertex="1">
          <mxGeometry width="30" height="30" as="geometry">
            <mxRectangle width="30" height="30" as="alternateBounds" />
          </mxGeometry>
        </mxCell>
        <mxCell id="9vlINu2ijhQBHvUozJI8-3" value="" style="shape=partialRectangle;connectable=0;fillColor=none;top=0;left=0;bottom=0;right=0;align=left;spacingLeft=6;fontStyle=5;overflow=hidden;whiteSpace=wrap;html=1;" parent="9vlINu2ijhQBHvUozJI8-1" vertex="1">
          <mxGeometry x="30" width="160.03926355698582" height="30" as="geometry">
            <mxRectangle width="160.03926355698582" height="30" as="alternateBounds" />
          </mxGeometry>
        </mxCell>
        <mxCell id="crPJ7tFQ0Vz0llvzbCSS-12" style="shape=tableRow;horizontal=0;startSize=0;swimlaneHead=0;swimlaneBody=0;fillColor=none;collapsible=0;dropTarget=0;points=[[0,0.5],[1,0.5]];portConstraint=eastwest;top=0;left=0;right=0;bottom=0;" parent="9vlINu2ijhQBHvUozJI8-0" vertex="1">
          <mxGeometry y="60" width="190.03926355698582" height="30" as="geometry" />
        </mxCell>
        <mxCell id="crPJ7tFQ0Vz0llvzbCSS-13" value="FK1" style="shape=partialRectangle;connectable=0;fillColor=none;top=0;left=0;bottom=0;right=0;editable=1;overflow=hidden;whiteSpace=wrap;html=1;" parent="crPJ7tFQ0Vz0llvzbCSS-12" vertex="1">
          <mxGeometry width="30" height="30" as="geometry">
            <mxRectangle width="30" height="30" as="alternateBounds" />
          </mxGeometry>
        </mxCell>
        <mxCell id="crPJ7tFQ0Vz0llvzbCSS-14" value="customer_id" style="shape=partialRectangle;connectable=0;fillColor=none;top=0;left=0;bottom=0;right=0;align=left;spacingLeft=6;overflow=hidden;whiteSpace=wrap;html=1;" parent="crPJ7tFQ0Vz0llvzbCSS-12" vertex="1">
          <mxGeometry x="30" width="160.03926355698582" height="30" as="geometry">
            <mxRectangle width="160.03926355698582" height="30" as="alternateBounds" />
          </mxGeometry>
        </mxCell>
        <mxCell id="crPJ7tFQ0Vz0llvzbCSS-15" style="shape=tableRow;horizontal=0;startSize=0;swimlaneHead=0;swimlaneBody=0;fillColor=none;collapsible=0;dropTarget=0;points=[[0,0.5],[1,0.5]];portConstraint=eastwest;top=0;left=0;right=0;bottom=0;" parent="9vlINu2ijhQBHvUozJI8-0" vertex="1">
          <mxGeometry y="90" width="190.03926355698582" height="30" as="geometry" />
        </mxCell>
        <mxCell id="crPJ7tFQ0Vz0llvzbCSS-16" value="FK2" style="shape=partialRectangle;connectable=0;fillColor=none;top=0;left=0;bottom=0;right=0;editable=1;overflow=hidden;whiteSpace=wrap;html=1;" parent="crPJ7tFQ0Vz0llvzbCSS-15" vertex="1">
          <mxGeometry width="30" height="30" as="geometry">
            <mxRectangle width="30" height="30" as="alternateBounds" />
          </mxGeometry>
        </mxCell>
        <mxCell id="crPJ7tFQ0Vz0llvzbCSS-17" value="customer_location_id" style="shape=partialRectangle;connectable=0;fillColor=none;top=0;left=0;bottom=0;right=0;align=left;spacingLeft=6;overflow=hidden;whiteSpace=wrap;html=1;" parent="crPJ7tFQ0Vz0llvzbCSS-15" vertex="1">
          <mxGeometry x="30" width="160.03926355698582" height="30" as="geometry">
            <mxRectangle width="160.03926355698582" height="30" as="alternateBounds" />
          </mxGeometry>
        </mxCell>
        <mxCell id="8LSA0JV7mJ2hiwA9IjpK-10" style="shape=tableRow;horizontal=0;startSize=0;swimlaneHead=0;swimlaneBody=0;fillColor=none;collapsible=0;dropTarget=0;points=[[0,0.5],[1,0.5]];portConstraint=eastwest;top=0;left=0;right=0;bottom=0;" parent="9vlINu2ijhQBHvUozJI8-0" vertex="1">
          <mxGeometry y="120" width="190.03926355698582" height="30" as="geometry" />
        </mxCell>
        <mxCell id="8LSA0JV7mJ2hiwA9IjpK-11" value="FK3" style="shape=partialRectangle;connectable=0;fillColor=none;top=0;left=0;bottom=0;right=0;editable=1;overflow=hidden;whiteSpace=wrap;html=1;" parent="8LSA0JV7mJ2hiwA9IjpK-10" vertex="1">
          <mxGeometry width="30" height="30" as="geometry">
            <mxRectangle width="30" height="30" as="alternateBounds" />
          </mxGeometry>
        </mxCell>
        <mxCell id="8LSA0JV7mJ2hiwA9IjpK-12" value="order_location_id" style="shape=partialRectangle;connectable=0;fillColor=none;top=0;left=0;bottom=0;right=0;align=left;spacingLeft=6;overflow=hidden;whiteSpace=wrap;html=1;" parent="8LSA0JV7mJ2hiwA9IjpK-10" vertex="1">
          <mxGeometry x="30" width="160.03926355698582" height="30" as="geometry">
            <mxRectangle width="160.03926355698582" height="30" as="alternateBounds" />
          </mxGeometry>
        </mxCell>
        <mxCell id="crPJ7tFQ0Vz0llvzbCSS-18" style="shape=tableRow;horizontal=0;startSize=0;swimlaneHead=0;swimlaneBody=0;fillColor=none;collapsible=0;dropTarget=0;points=[[0,0.5],[1,0.5]];portConstraint=eastwest;top=0;left=0;right=0;bottom=0;" parent="9vlINu2ijhQBHvUozJI8-0" vertex="1">
          <mxGeometry y="150" width="190.03926355698582" height="30" as="geometry" />
        </mxCell>
        <mxCell id="crPJ7tFQ0Vz0llvzbCSS-19" value="FK4" style="shape=partialRectangle;connectable=0;fillColor=none;top=0;left=0;bottom=0;right=0;editable=1;overflow=hidden;whiteSpace=wrap;html=1;" parent="crPJ7tFQ0Vz0llvzbCSS-18" vertex="1">
          <mxGeometry width="30" height="30" as="geometry">
            <mxRectangle width="30" height="30" as="alternateBounds" />
          </mxGeometry>
        </mxCell>
        <mxCell id="crPJ7tFQ0Vz0llvzbCSS-20" value="shipping_date" style="shape=partialRectangle;connectable=0;fillColor=none;top=0;left=0;bottom=0;right=0;align=left;spacingLeft=6;overflow=hidden;whiteSpace=wrap;html=1;" parent="crPJ7tFQ0Vz0llvzbCSS-18" vertex="1">
          <mxGeometry x="30" width="160.03926355698582" height="30" as="geometry">
            <mxRectangle width="160.03926355698582" height="30" as="alternateBounds" />
          </mxGeometry>
        </mxCell>
        <mxCell id="9vlINu2ijhQBHvUozJI8-199" style="shape=tableRow;horizontal=0;startSize=0;swimlaneHead=0;swimlaneBody=0;fillColor=none;collapsible=0;dropTarget=0;points=[[0,0.5],[1,0.5]];portConstraint=eastwest;top=0;left=0;right=0;bottom=0;fontStyle=1" parent="9vlINu2ijhQBHvUozJI8-0" vertex="1">
          <mxGeometry y="180" width="190.03926355698582" height="29" as="geometry" />
        </mxCell>
        <mxCell id="9vlINu2ijhQBHvUozJI8-200" value="FK5" style="shape=partialRectangle;connectable=0;fillColor=none;top=0;left=0;bottom=0;right=0;editable=1;overflow=hidden;whiteSpace=wrap;html=1;" parent="9vlINu2ijhQBHvUozJI8-199" vertex="1">
          <mxGeometry width="30" height="29" as="geometry">
            <mxRectangle width="30" height="29" as="alternateBounds" />
          </mxGeometry>
        </mxCell>
        <mxCell id="9vlINu2ijhQBHvUozJI8-201" value="order_date" style="shape=partialRectangle;connectable=0;fillColor=none;top=0;left=0;bottom=0;right=0;align=left;spacingLeft=6;overflow=hidden;whiteSpace=wrap;html=1;fontStyle=0" parent="9vlINu2ijhQBHvUozJI8-199" vertex="1">
          <mxGeometry x="30" width="160.03926355698582" height="29" as="geometry">
            <mxRectangle width="160.03926355698582" height="29" as="alternateBounds" />
          </mxGeometry>
        </mxCell>
        <mxCell id="9vlINu2ijhQBHvUozJI8-196" style="shape=tableRow;horizontal=0;startSize=0;swimlaneHead=0;swimlaneBody=0;fillColor=none;collapsible=0;dropTarget=0;points=[[0,0.5],[1,0.5]];portConstraint=eastwest;top=0;left=0;right=0;bottom=0;" parent="9vlINu2ijhQBHvUozJI8-0" vertex="1">
          <mxGeometry y="209" width="190.03926355698582" height="30" as="geometry" />
        </mxCell>
        <mxCell id="9vlINu2ijhQBHvUozJI8-197" style="shape=partialRectangle;connectable=0;fillColor=none;top=0;left=0;bottom=0;right=0;editable=1;overflow=hidden;whiteSpace=wrap;html=1;" parent="9vlINu2ijhQBHvUozJI8-196" vertex="1">
          <mxGeometry width="30" height="30" as="geometry">
            <mxRectangle width="30" height="30" as="alternateBounds" />
          </mxGeometry>
        </mxCell>
        <mxCell id="9vlINu2ijhQBHvUozJI8-198" value="payment_type" style="shape=partialRectangle;connectable=0;fillColor=none;top=0;left=0;bottom=0;right=0;align=left;spacingLeft=6;overflow=hidden;whiteSpace=wrap;html=1;" parent="9vlINu2ijhQBHvUozJI8-196" vertex="1">
          <mxGeometry x="30" width="160.03926355698582" height="30" as="geometry">
            <mxRectangle width="160.03926355698582" height="30" as="alternateBounds" />
          </mxGeometry>
        </mxCell>
        <mxCell id="9vlINu2ijhQBHvUozJI8-220" style="shape=tableRow;horizontal=0;startSize=0;swimlaneHead=0;swimlaneBody=0;fillColor=none;collapsible=0;dropTarget=0;points=[[0,0.5],[1,0.5]];portConstraint=eastwest;top=0;left=0;right=0;bottom=0;" parent="9vlINu2ijhQBHvUozJI8-0" vertex="1">
          <mxGeometry y="239" width="190.03926355698582" height="30" as="geometry" />
        </mxCell>
        <mxCell id="9vlINu2ijhQBHvUozJI8-221" style="shape=partialRectangle;connectable=0;fillColor=none;top=0;left=0;bottom=0;right=0;editable=1;overflow=hidden;whiteSpace=wrap;html=1;" parent="9vlINu2ijhQBHvUozJI8-220" vertex="1">
          <mxGeometry width="30" height="30" as="geometry">
            <mxRectangle width="30" height="30" as="alternateBounds" />
          </mxGeometry>
        </mxCell>
        <mxCell id="9vlINu2ijhQBHvUozJI8-222" value="days_shipping_real" style="shape=partialRectangle;connectable=0;fillColor=none;top=0;left=0;bottom=0;right=0;align=left;spacingLeft=6;overflow=hidden;whiteSpace=wrap;html=1;" parent="9vlINu2ijhQBHvUozJI8-220" vertex="1">
          <mxGeometry x="30" width="160.03926355698582" height="30" as="geometry">
            <mxRectangle width="160.03926355698582" height="30" as="alternateBounds" />
          </mxGeometry>
        </mxCell>
        <mxCell id="9vlINu2ijhQBHvUozJI8-223" style="shape=tableRow;horizontal=0;startSize=0;swimlaneHead=0;swimlaneBody=0;fillColor=none;collapsible=0;dropTarget=0;points=[[0,0.5],[1,0.5]];portConstraint=eastwest;top=0;left=0;right=0;bottom=0;" parent="9vlINu2ijhQBHvUozJI8-0" vertex="1">
          <mxGeometry y="269" width="190.03926355698582" height="30" as="geometry" />
        </mxCell>
        <mxCell id="9vlINu2ijhQBHvUozJI8-224" style="shape=partialRectangle;connectable=0;fillColor=none;top=0;left=0;bottom=0;right=0;editable=1;overflow=hidden;whiteSpace=wrap;html=1;" parent="9vlINu2ijhQBHvUozJI8-223" vertex="1">
          <mxGeometry width="30" height="30" as="geometry">
            <mxRectangle width="30" height="30" as="alternateBounds" />
          </mxGeometry>
        </mxCell>
        <mxCell id="9vlINu2ijhQBHvUozJI8-225" value="days_shipping_scheduled" style="shape=partialRectangle;connectable=0;fillColor=none;top=0;left=0;bottom=0;right=0;align=left;spacingLeft=6;overflow=hidden;whiteSpace=wrap;html=1;" parent="9vlINu2ijhQBHvUozJI8-223" vertex="1">
          <mxGeometry x="30" width="160.03926355698582" height="30" as="geometry">
            <mxRectangle width="160.03926355698582" height="30" as="alternateBounds" />
          </mxGeometry>
        </mxCell>
        <mxCell id="9vlINu2ijhQBHvUozJI8-229" style="shape=tableRow;horizontal=0;startSize=0;swimlaneHead=0;swimlaneBody=0;fillColor=none;collapsible=0;dropTarget=0;points=[[0,0.5],[1,0.5]];portConstraint=eastwest;top=0;left=0;right=0;bottom=0;" parent="9vlINu2ijhQBHvUozJI8-0" vertex="1">
          <mxGeometry y="299" width="190.03926355698582" height="30" as="geometry" />
        </mxCell>
        <mxCell id="9vlINu2ijhQBHvUozJI8-230" style="shape=partialRectangle;connectable=0;fillColor=none;top=0;left=0;bottom=0;right=0;editable=1;overflow=hidden;whiteSpace=wrap;html=1;" parent="9vlINu2ijhQBHvUozJI8-229" vertex="1">
          <mxGeometry width="30" height="30" as="geometry">
            <mxRectangle width="30" height="30" as="alternateBounds" />
          </mxGeometry>
        </mxCell>
        <mxCell id="9vlINu2ijhQBHvUozJI8-231" value="delivery_status" style="shape=partialRectangle;connectable=0;fillColor=none;top=0;left=0;bottom=0;right=0;align=left;spacingLeft=6;overflow=hidden;whiteSpace=wrap;html=1;" parent="9vlINu2ijhQBHvUozJI8-229" vertex="1">
          <mxGeometry x="30" width="160.03926355698582" height="30" as="geometry">
            <mxRectangle width="160.03926355698582" height="30" as="alternateBounds" />
          </mxGeometry>
        </mxCell>
        <mxCell id="9vlINu2ijhQBHvUozJI8-226" style="shape=tableRow;horizontal=0;startSize=0;swimlaneHead=0;swimlaneBody=0;fillColor=none;collapsible=0;dropTarget=0;points=[[0,0.5],[1,0.5]];portConstraint=eastwest;top=0;left=0;right=0;bottom=0;" parent="9vlINu2ijhQBHvUozJI8-0" vertex="1">
          <mxGeometry y="329" width="190.03926355698582" height="30" as="geometry" />
        </mxCell>
        <mxCell id="9vlINu2ijhQBHvUozJI8-227" style="shape=partialRectangle;connectable=0;fillColor=none;top=0;left=0;bottom=0;right=0;editable=1;overflow=hidden;whiteSpace=wrap;html=1;" parent="9vlINu2ijhQBHvUozJI8-226" vertex="1">
          <mxGeometry width="30" height="30" as="geometry">
            <mxRectangle width="30" height="30" as="alternateBounds" />
          </mxGeometry>
        </mxCell>
        <mxCell id="9vlINu2ijhQBHvUozJI8-228" value="late_delivery_risk" style="shape=partialRectangle;connectable=0;fillColor=none;top=0;left=0;bottom=0;right=0;align=left;spacingLeft=6;overflow=hidden;whiteSpace=wrap;html=1;" parent="9vlINu2ijhQBHvUozJI8-226" vertex="1">
          <mxGeometry x="30" width="160.03926355698582" height="30" as="geometry">
            <mxRectangle width="160.03926355698582" height="30" as="alternateBounds" />
          </mxGeometry>
        </mxCell>
        <mxCell id="9vlINu2ijhQBHvUozJI8-211" style="shape=tableRow;horizontal=0;startSize=0;swimlaneHead=0;swimlaneBody=0;fillColor=none;collapsible=0;dropTarget=0;points=[[0,0.5],[1,0.5]];portConstraint=eastwest;top=0;left=0;right=0;bottom=0;" parent="9vlINu2ijhQBHvUozJI8-0" vertex="1">
          <mxGeometry y="359" width="190.03926355698582" height="30" as="geometry" />
        </mxCell>
        <mxCell id="9vlINu2ijhQBHvUozJI8-212" style="shape=partialRectangle;connectable=0;fillColor=none;top=0;left=0;bottom=0;right=0;editable=1;overflow=hidden;whiteSpace=wrap;html=1;" parent="9vlINu2ijhQBHvUozJI8-211" vertex="1">
          <mxGeometry width="30" height="30" as="geometry">
            <mxRectangle width="30" height="30" as="alternateBounds" />
          </mxGeometry>
        </mxCell>
        <mxCell id="9vlINu2ijhQBHvUozJI8-213" value="profit_per_order" style="shape=partialRectangle;connectable=0;fillColor=none;top=0;left=0;bottom=0;right=0;align=left;spacingLeft=6;overflow=hidden;whiteSpace=wrap;html=1;fontStyle=0" parent="9vlINu2ijhQBHvUozJI8-211" vertex="1">
          <mxGeometry x="30" width="160.03926355698582" height="30" as="geometry">
            <mxRectangle width="160.03926355698582" height="30" as="alternateBounds" />
          </mxGeometry>
        </mxCell>
        <mxCell id="9vlINu2ijhQBHvUozJI8-214" style="shape=tableRow;horizontal=0;startSize=0;swimlaneHead=0;swimlaneBody=0;fillColor=none;collapsible=0;dropTarget=0;points=[[0,0.5],[1,0.5]];portConstraint=eastwest;top=0;left=0;right=0;bottom=0;" parent="9vlINu2ijhQBHvUozJI8-0" vertex="1">
          <mxGeometry y="389" width="190.03926355698582" height="30" as="geometry" />
        </mxCell>
        <mxCell id="9vlINu2ijhQBHvUozJI8-215" style="shape=partialRectangle;connectable=0;fillColor=none;top=0;left=0;bottom=0;right=0;editable=1;overflow=hidden;whiteSpace=wrap;html=1;" parent="9vlINu2ijhQBHvUozJI8-214" vertex="1">
          <mxGeometry width="30" height="30" as="geometry">
            <mxRectangle width="30" height="30" as="alternateBounds" />
          </mxGeometry>
        </mxCell>
        <mxCell id="9vlINu2ijhQBHvUozJI8-216" value="order_status" style="shape=partialRectangle;connectable=0;fillColor=none;top=0;left=0;bottom=0;right=0;align=left;spacingLeft=6;overflow=hidden;whiteSpace=wrap;html=1;fontStyle=0" parent="9vlINu2ijhQBHvUozJI8-214" vertex="1">
          <mxGeometry x="30" width="160.03926355698582" height="30" as="geometry">
            <mxRectangle width="160.03926355698582" height="30" as="alternateBounds" />
          </mxGeometry>
        </mxCell>
        <mxCell id="9vlINu2ijhQBHvUozJI8-208" style="shape=tableRow;horizontal=0;startSize=0;swimlaneHead=0;swimlaneBody=0;fillColor=none;collapsible=0;dropTarget=0;points=[[0,0.5],[1,0.5]];portConstraint=eastwest;top=0;left=0;right=0;bottom=0;fontStyle=1" parent="9vlINu2ijhQBHvUozJI8-0" vertex="1">
          <mxGeometry y="419" width="190.03926355698582" height="30" as="geometry" />
        </mxCell>
        <mxCell id="9vlINu2ijhQBHvUozJI8-209" style="shape=partialRectangle;connectable=0;fillColor=none;top=0;left=0;bottom=0;right=0;editable=1;overflow=hidden;whiteSpace=wrap;html=1;" parent="9vlINu2ijhQBHvUozJI8-208" vertex="1">
          <mxGeometry width="30" height="30" as="geometry">
            <mxRectangle width="30" height="30" as="alternateBounds" />
          </mxGeometry>
        </mxCell>
        <mxCell id="9vlINu2ijhQBHvUozJI8-210" value="shipping_mode" style="shape=partialRectangle;connectable=0;fillColor=none;top=0;left=0;bottom=0;right=0;align=left;spacingLeft=6;overflow=hidden;whiteSpace=wrap;html=1;fontStyle=0" parent="9vlINu2ijhQBHvUozJI8-208" vertex="1">
          <mxGeometry x="30" width="160.03926355698582" height="30" as="geometry">
            <mxRectangle width="160.03926355698582" height="30" as="alternateBounds" />
          </mxGeometry>
        </mxCell>
        <mxCell id="9vlINu2ijhQBHvUozJI8-4" value="" style="shape=tableRow;horizontal=0;startSize=0;swimlaneHead=0;swimlaneBody=0;fillColor=none;collapsible=0;dropTarget=0;points=[[0,0.5],[1,0.5]];portConstraint=eastwest;top=0;left=0;right=0;bottom=0;" parent="9vlINu2ijhQBHvUozJI8-0" vertex="1">
          <mxGeometry y="449" width="190.03926355698582" height="30" as="geometry" />
        </mxCell>
        <mxCell id="9vlINu2ijhQBHvUozJI8-5" value="" style="shape=partialRectangle;connectable=0;fillColor=none;top=0;left=0;bottom=0;right=0;editable=1;overflow=hidden;whiteSpace=wrap;html=1;" parent="9vlINu2ijhQBHvUozJI8-4" vertex="1">
          <mxGeometry width="30" height="30" as="geometry">
            <mxRectangle width="30" height="30" as="alternateBounds" />
          </mxGeometry>
        </mxCell>
        <mxCell id="9vlINu2ijhQBHvUozJI8-6" value="number_of_items" style="shape=partialRectangle;connectable=0;fillColor=none;top=0;left=0;bottom=0;right=0;align=left;spacingLeft=6;overflow=hidden;whiteSpace=wrap;html=1;fontStyle=0" parent="9vlINu2ijhQBHvUozJI8-4" vertex="1">
          <mxGeometry x="30" width="160.03926355698582" height="30" as="geometry">
            <mxRectangle width="160.03926355698582" height="30" as="alternateBounds" />
          </mxGeometry>
        </mxCell>
        <mxCell id="qMYEpVoAq5XhD6evY4pM-0" style="shape=tableRow;horizontal=0;startSize=0;swimlaneHead=0;swimlaneBody=0;fillColor=none;collapsible=0;dropTarget=0;points=[[0,0.5],[1,0.5]];portConstraint=eastwest;top=0;left=0;right=0;bottom=0;" parent="9vlINu2ijhQBHvUozJI8-0" vertex="1">
          <mxGeometry y="479" width="190.03926355698582" height="30" as="geometry" />
        </mxCell>
        <mxCell id="qMYEpVoAq5XhD6evY4pM-1" style="shape=partialRectangle;connectable=0;fillColor=none;top=0;left=0;bottom=0;right=0;editable=1;overflow=hidden;whiteSpace=wrap;html=1;" parent="qMYEpVoAq5XhD6evY4pM-0" vertex="1">
          <mxGeometry width="30" height="30" as="geometry">
            <mxRectangle width="30" height="30" as="alternateBounds" />
          </mxGeometry>
        </mxCell>
        <mxCell id="qMYEpVoAq5XhD6evY4pM-2" value="total_discount" style="shape=partialRectangle;connectable=0;fillColor=none;top=0;left=0;bottom=0;right=0;align=left;spacingLeft=6;overflow=hidden;whiteSpace=wrap;html=1;fontStyle=0" parent="qMYEpVoAq5XhD6evY4pM-0" vertex="1">
          <mxGeometry x="30" width="160.03926355698582" height="30" as="geometry">
            <mxRectangle width="160.03926355698582" height="30" as="alternateBounds" />
          </mxGeometry>
        </mxCell>
        <mxCell id="9vlINu2ijhQBHvUozJI8-7" value="" style="shape=tableRow;horizontal=0;startSize=0;swimlaneHead=0;swimlaneBody=0;fillColor=none;collapsible=0;dropTarget=0;points=[[0,0.5],[1,0.5]];portConstraint=eastwest;top=0;left=0;right=0;bottom=0;" parent="9vlINu2ijhQBHvUozJI8-0" vertex="1">
          <mxGeometry y="509" width="190.03926355698582" height="30" as="geometry" />
        </mxCell>
        <mxCell id="9vlINu2ijhQBHvUozJI8-8" value="" style="shape=partialRectangle;connectable=0;fillColor=none;top=0;left=0;bottom=0;right=0;editable=1;overflow=hidden;whiteSpace=wrap;html=1;" parent="9vlINu2ijhQBHvUozJI8-7" vertex="1">
          <mxGeometry width="30" height="30" as="geometry">
            <mxRectangle width="30" height="30" as="alternateBounds" />
          </mxGeometry>
        </mxCell>
        <mxCell id="9vlINu2ijhQBHvUozJI8-9" value="total_price&amp;nbsp;" style="shape=partialRectangle;connectable=0;fillColor=none;top=0;left=0;bottom=0;right=0;align=left;spacingLeft=6;overflow=hidden;whiteSpace=wrap;html=1;fontStyle=0" parent="9vlINu2ijhQBHvUozJI8-7" vertex="1">
          <mxGeometry x="30" width="160.03926355698582" height="30" as="geometry">
            <mxRectangle width="160.03926355698582" height="30" as="alternateBounds" />
          </mxGeometry>
        </mxCell>
        <mxCell id="9vlINu2ijhQBHvUozJI8-87" value="Time" style="shape=table;startSize=30;container=1;collapsible=1;childLayout=tableLayout;fixedRows=1;rowLines=0;fontStyle=1;align=center;resizeLast=1;html=1;" parent="WIyWlLk6GJQsqaUBKTNV-1" vertex="1">
          <mxGeometry x="1892" y="311" width="180" height="210" as="geometry" />
        </mxCell>
        <mxCell id="9vlINu2ijhQBHvUozJI8-88" value="" style="shape=tableRow;horizontal=0;startSize=0;swimlaneHead=0;swimlaneBody=0;fillColor=none;collapsible=0;dropTarget=0;points=[[0,0.5],[1,0.5]];portConstraint=eastwest;top=0;left=0;right=0;bottom=1;" parent="9vlINu2ijhQBHvUozJI8-87" vertex="1">
          <mxGeometry y="30" width="180" height="30" as="geometry" />
        </mxCell>
        <mxCell id="9vlINu2ijhQBHvUozJI8-89" value="PK" style="shape=partialRectangle;connectable=0;fillColor=none;top=0;left=0;bottom=0;right=0;fontStyle=1;overflow=hidden;whiteSpace=wrap;html=1;" parent="9vlINu2ijhQBHvUozJI8-88" vertex="1">
          <mxGeometry width="30" height="30" as="geometry">
            <mxRectangle width="30" height="30" as="alternateBounds" />
          </mxGeometry>
        </mxCell>
        <mxCell id="9vlINu2ijhQBHvUozJI8-90" value="time_id" style="shape=partialRectangle;connectable=0;fillColor=none;top=0;left=0;bottom=0;right=0;align=left;spacingLeft=6;fontStyle=5;overflow=hidden;whiteSpace=wrap;html=1;" parent="9vlINu2ijhQBHvUozJI8-88" vertex="1">
          <mxGeometry x="30" width="150" height="30" as="geometry">
            <mxRectangle width="150" height="30" as="alternateBounds" />
          </mxGeometry>
        </mxCell>
        <mxCell id="9vlINu2ijhQBHvUozJI8-91" value="" style="shape=tableRow;horizontal=0;startSize=0;swimlaneHead=0;swimlaneBody=0;fillColor=none;collapsible=0;dropTarget=0;points=[[0,0.5],[1,0.5]];portConstraint=eastwest;top=0;left=0;right=0;bottom=0;" parent="9vlINu2ijhQBHvUozJI8-87" vertex="1">
          <mxGeometry y="60" width="180" height="30" as="geometry" />
        </mxCell>
        <mxCell id="9vlINu2ijhQBHvUozJI8-92" value="" style="shape=partialRectangle;connectable=0;fillColor=none;top=0;left=0;bottom=0;right=0;editable=1;overflow=hidden;whiteSpace=wrap;html=1;" parent="9vlINu2ijhQBHvUozJI8-91" vertex="1">
          <mxGeometry width="30" height="30" as="geometry">
            <mxRectangle width="30" height="30" as="alternateBounds" />
          </mxGeometry>
        </mxCell>
        <mxCell id="9vlINu2ijhQBHvUozJI8-93" value="minute" style="shape=partialRectangle;connectable=0;fillColor=none;top=0;left=0;bottom=0;right=0;align=left;spacingLeft=6;overflow=hidden;whiteSpace=wrap;html=1;" parent="9vlINu2ijhQBHvUozJI8-91" vertex="1">
          <mxGeometry x="30" width="150" height="30" as="geometry">
            <mxRectangle width="150" height="30" as="alternateBounds" />
          </mxGeometry>
        </mxCell>
        <mxCell id="9vlINu2ijhQBHvUozJI8-94" value="" style="shape=tableRow;horizontal=0;startSize=0;swimlaneHead=0;swimlaneBody=0;fillColor=none;collapsible=0;dropTarget=0;points=[[0,0.5],[1,0.5]];portConstraint=eastwest;top=0;left=0;right=0;bottom=0;" parent="9vlINu2ijhQBHvUozJI8-87" vertex="1">
          <mxGeometry y="90" width="180" height="30" as="geometry" />
        </mxCell>
        <mxCell id="9vlINu2ijhQBHvUozJI8-95" value="" style="shape=partialRectangle;connectable=0;fillColor=none;top=0;left=0;bottom=0;right=0;editable=1;overflow=hidden;whiteSpace=wrap;html=1;" parent="9vlINu2ijhQBHvUozJI8-94" vertex="1">
          <mxGeometry width="30" height="30" as="geometry">
            <mxRectangle width="30" height="30" as="alternateBounds" />
          </mxGeometry>
        </mxCell>
        <mxCell id="9vlINu2ijhQBHvUozJI8-96" value="hour" style="shape=partialRectangle;connectable=0;fillColor=none;top=0;left=0;bottom=0;right=0;align=left;spacingLeft=6;overflow=hidden;whiteSpace=wrap;html=1;" parent="9vlINu2ijhQBHvUozJI8-94" vertex="1">
          <mxGeometry x="30" width="150" height="30" as="geometry">
            <mxRectangle width="150" height="30" as="alternateBounds" />
          </mxGeometry>
        </mxCell>
        <mxCell id="9vlINu2ijhQBHvUozJI8-97" value="" style="shape=tableRow;horizontal=0;startSize=0;swimlaneHead=0;swimlaneBody=0;fillColor=none;collapsible=0;dropTarget=0;points=[[0,0.5],[1,0.5]];portConstraint=eastwest;top=0;left=0;right=0;bottom=0;" parent="9vlINu2ijhQBHvUozJI8-87" vertex="1">
          <mxGeometry y="120" width="180" height="30" as="geometry" />
        </mxCell>
        <mxCell id="9vlINu2ijhQBHvUozJI8-98" value="" style="shape=partialRectangle;connectable=0;fillColor=none;top=0;left=0;bottom=0;right=0;editable=1;overflow=hidden;whiteSpace=wrap;html=1;" parent="9vlINu2ijhQBHvUozJI8-97" vertex="1">
          <mxGeometry width="30" height="30" as="geometry">
            <mxRectangle width="30" height="30" as="alternateBounds" />
          </mxGeometry>
        </mxCell>
        <mxCell id="9vlINu2ijhQBHvUozJI8-99" value="day" style="shape=partialRectangle;connectable=0;fillColor=none;top=0;left=0;bottom=0;right=0;align=left;spacingLeft=6;overflow=hidden;whiteSpace=wrap;html=1;" parent="9vlINu2ijhQBHvUozJI8-97" vertex="1">
          <mxGeometry x="30" width="150" height="30" as="geometry">
            <mxRectangle width="150" height="30" as="alternateBounds" />
          </mxGeometry>
        </mxCell>
        <mxCell id="9vlINu2ijhQBHvUozJI8-190" style="shape=tableRow;horizontal=0;startSize=0;swimlaneHead=0;swimlaneBody=0;fillColor=none;collapsible=0;dropTarget=0;points=[[0,0.5],[1,0.5]];portConstraint=eastwest;top=0;left=0;right=0;bottom=0;" parent="9vlINu2ijhQBHvUozJI8-87" vertex="1">
          <mxGeometry y="150" width="180" height="30" as="geometry" />
        </mxCell>
        <mxCell id="9vlINu2ijhQBHvUozJI8-191" style="shape=partialRectangle;connectable=0;fillColor=none;top=0;left=0;bottom=0;right=0;editable=1;overflow=hidden;whiteSpace=wrap;html=1;" parent="9vlINu2ijhQBHvUozJI8-190" vertex="1">
          <mxGeometry width="30" height="30" as="geometry">
            <mxRectangle width="30" height="30" as="alternateBounds" />
          </mxGeometry>
        </mxCell>
        <mxCell id="9vlINu2ijhQBHvUozJI8-192" value="month" style="shape=partialRectangle;connectable=0;fillColor=none;top=0;left=0;bottom=0;right=0;align=left;spacingLeft=6;overflow=hidden;whiteSpace=wrap;html=1;" parent="9vlINu2ijhQBHvUozJI8-190" vertex="1">
          <mxGeometry x="30" width="150" height="30" as="geometry">
            <mxRectangle width="150" height="30" as="alternateBounds" />
          </mxGeometry>
        </mxCell>
        <mxCell id="9vlINu2ijhQBHvUozJI8-193" style="shape=tableRow;horizontal=0;startSize=0;swimlaneHead=0;swimlaneBody=0;fillColor=none;collapsible=0;dropTarget=0;points=[[0,0.5],[1,0.5]];portConstraint=eastwest;top=0;left=0;right=0;bottom=0;" parent="9vlINu2ijhQBHvUozJI8-87" vertex="1">
          <mxGeometry y="180" width="180" height="30" as="geometry" />
        </mxCell>
        <mxCell id="9vlINu2ijhQBHvUozJI8-194" style="shape=partialRectangle;connectable=0;fillColor=none;top=0;left=0;bottom=0;right=0;editable=1;overflow=hidden;whiteSpace=wrap;html=1;" parent="9vlINu2ijhQBHvUozJI8-193" vertex="1">
          <mxGeometry width="30" height="30" as="geometry">
            <mxRectangle width="30" height="30" as="alternateBounds" />
          </mxGeometry>
        </mxCell>
        <mxCell id="9vlINu2ijhQBHvUozJI8-195" value="year" style="shape=partialRectangle;connectable=0;fillColor=none;top=0;left=0;bottom=0;right=0;align=left;spacingLeft=6;overflow=hidden;whiteSpace=wrap;html=1;" parent="9vlINu2ijhQBHvUozJI8-193" vertex="1">
          <mxGeometry x="30" width="150" height="30" as="geometry">
            <mxRectangle width="150" height="30" as="alternateBounds" />
          </mxGeometry>
        </mxCell>
        <mxCell id="9vlINu2ijhQBHvUozJI8-100" value="Location" style="shape=table;startSize=30;container=1;collapsible=1;childLayout=tableLayout;fixedRows=1;rowLines=0;fontStyle=1;align=center;resizeLast=1;html=1;" parent="WIyWlLk6GJQsqaUBKTNV-1" vertex="1">
          <mxGeometry x="1318" y="291" width="180" height="350" as="geometry" />
        </mxCell>
        <mxCell id="9vlINu2ijhQBHvUozJI8-101" value="" style="shape=tableRow;horizontal=0;startSize=0;swimlaneHead=0;swimlaneBody=0;fillColor=none;collapsible=0;dropTarget=0;points=[[0,0.5],[1,0.5]];portConstraint=eastwest;top=0;left=0;right=0;bottom=1;" parent="9vlINu2ijhQBHvUozJI8-100" vertex="1">
          <mxGeometry y="30" width="180" height="30" as="geometry" />
        </mxCell>
        <mxCell id="9vlINu2ijhQBHvUozJI8-102" value="PK" style="shape=partialRectangle;connectable=0;fillColor=none;top=0;left=0;bottom=0;right=0;fontStyle=1;overflow=hidden;whiteSpace=wrap;html=1;" parent="9vlINu2ijhQBHvUozJI8-101" vertex="1">
          <mxGeometry width="28" height="30" as="geometry">
            <mxRectangle width="28" height="30" as="alternateBounds" />
          </mxGeometry>
        </mxCell>
        <mxCell id="9vlINu2ijhQBHvUozJI8-103" value="location_id" style="shape=partialRectangle;connectable=0;fillColor=none;top=0;left=0;bottom=0;right=0;align=left;spacingLeft=6;fontStyle=5;overflow=hidden;whiteSpace=wrap;html=1;" parent="9vlINu2ijhQBHvUozJI8-101" vertex="1">
          <mxGeometry x="28" width="152" height="30" as="geometry">
            <mxRectangle width="152" height="30" as="alternateBounds" />
          </mxGeometry>
        </mxCell>
        <mxCell id="7bIyxyWzbEFd4Pbs0qf7-64" style="shape=tableRow;horizontal=0;startSize=0;swimlaneHead=0;swimlaneBody=0;fillColor=none;collapsible=0;dropTarget=0;points=[[0,0.5],[1,0.5]];portConstraint=eastwest;top=0;left=0;right=0;bottom=0;" parent="9vlINu2ijhQBHvUozJI8-100" vertex="1">
          <mxGeometry y="60" width="180" height="21" as="geometry" />
        </mxCell>
        <mxCell id="7bIyxyWzbEFd4Pbs0qf7-65" value="LK" style="shape=partialRectangle;connectable=0;fillColor=none;top=0;left=0;bottom=0;right=0;editable=1;overflow=hidden;whiteSpace=wrap;html=1;" parent="7bIyxyWzbEFd4Pbs0qf7-64" vertex="1">
          <mxGeometry width="28" height="21" as="geometry">
            <mxRectangle width="28" height="21" as="alternateBounds" />
          </mxGeometry>
        </mxCell>
        <mxCell id="7bIyxyWzbEFd4Pbs0qf7-66" value="city_id" style="shape=partialRectangle;connectable=0;fillColor=none;top=0;left=0;bottom=0;right=0;align=left;spacingLeft=6;overflow=hidden;whiteSpace=wrap;html=1;" parent="7bIyxyWzbEFd4Pbs0qf7-64" vertex="1">
          <mxGeometry x="28" width="152" height="21" as="geometry">
            <mxRectangle width="152" height="21" as="alternateBounds" />
          </mxGeometry>
        </mxCell>
        <mxCell id="9vlINu2ijhQBHvUozJI8-104" value="" style="shape=tableRow;horizontal=0;startSize=0;swimlaneHead=0;swimlaneBody=0;fillColor=none;collapsible=0;dropTarget=0;points=[[0,0.5],[1,0.5]];portConstraint=eastwest;top=0;left=0;right=0;bottom=0;" parent="9vlINu2ijhQBHvUozJI8-100" vertex="1">
          <mxGeometry y="81" width="180" height="30" as="geometry" />
        </mxCell>
        <mxCell id="9vlINu2ijhQBHvUozJI8-105" value="" style="shape=partialRectangle;connectable=0;fillColor=none;top=0;left=0;bottom=0;right=0;editable=1;overflow=hidden;whiteSpace=wrap;html=1;" parent="9vlINu2ijhQBHvUozJI8-104" vertex="1">
          <mxGeometry width="28" height="30" as="geometry">
            <mxRectangle width="28" height="30" as="alternateBounds" />
          </mxGeometry>
        </mxCell>
        <mxCell id="9vlINu2ijhQBHvUozJI8-106" value="city" style="shape=partialRectangle;connectable=0;fillColor=none;top=0;left=0;bottom=0;right=0;align=left;spacingLeft=6;overflow=hidden;whiteSpace=wrap;html=1;" parent="9vlINu2ijhQBHvUozJI8-104" vertex="1">
          <mxGeometry x="28" width="152" height="30" as="geometry">
            <mxRectangle width="152" height="30" as="alternateBounds" />
          </mxGeometry>
        </mxCell>
        <mxCell id="7bIyxyWzbEFd4Pbs0qf7-61" style="shape=tableRow;horizontal=0;startSize=0;swimlaneHead=0;swimlaneBody=0;fillColor=none;collapsible=0;dropTarget=0;points=[[0,0.5],[1,0.5]];portConstraint=eastwest;top=0;left=0;right=0;bottom=0;" parent="9vlINu2ijhQBHvUozJI8-100" vertex="1">
          <mxGeometry y="111" width="180" height="29" as="geometry" />
        </mxCell>
        <mxCell id="7bIyxyWzbEFd4Pbs0qf7-62" value="LK" style="shape=partialRectangle;connectable=0;fillColor=none;top=0;left=0;bottom=0;right=0;editable=1;overflow=hidden;whiteSpace=wrap;html=1;" parent="7bIyxyWzbEFd4Pbs0qf7-61" vertex="1">
          <mxGeometry width="28" height="29" as="geometry">
            <mxRectangle width="28" height="29" as="alternateBounds" />
          </mxGeometry>
        </mxCell>
        <mxCell id="7bIyxyWzbEFd4Pbs0qf7-63" value="state_id" style="shape=partialRectangle;connectable=0;fillColor=none;top=0;left=0;bottom=0;right=0;align=left;spacingLeft=6;overflow=hidden;whiteSpace=wrap;html=1;" parent="7bIyxyWzbEFd4Pbs0qf7-61" vertex="1">
          <mxGeometry x="28" width="152" height="29" as="geometry">
            <mxRectangle width="152" height="29" as="alternateBounds" />
          </mxGeometry>
        </mxCell>
        <mxCell id="9vlINu2ijhQBHvUozJI8-107" value="" style="shape=tableRow;horizontal=0;startSize=0;swimlaneHead=0;swimlaneBody=0;fillColor=none;collapsible=0;dropTarget=0;points=[[0,0.5],[1,0.5]];portConstraint=eastwest;top=0;left=0;right=0;bottom=0;" parent="9vlINu2ijhQBHvUozJI8-100" vertex="1">
          <mxGeometry y="140" width="180" height="30" as="geometry" />
        </mxCell>
        <mxCell id="9vlINu2ijhQBHvUozJI8-108" value="&lt;span style=&quot;white-space: pre;&quot;&gt; &lt;/span&gt;&lt;span style=&quot;white-space: pre;&quot;&gt; &lt;/span&gt;" style="shape=partialRectangle;connectable=0;fillColor=none;top=0;left=0;bottom=0;right=0;editable=1;overflow=hidden;whiteSpace=wrap;html=1;" parent="9vlINu2ijhQBHvUozJI8-107" vertex="1">
          <mxGeometry width="28" height="30" as="geometry">
            <mxRectangle width="28" height="30" as="alternateBounds" />
          </mxGeometry>
        </mxCell>
        <mxCell id="9vlINu2ijhQBHvUozJI8-109" value="state" style="shape=partialRectangle;connectable=0;fillColor=none;top=0;left=0;bottom=0;right=0;align=left;spacingLeft=6;overflow=hidden;whiteSpace=wrap;html=1;" parent="9vlINu2ijhQBHvUozJI8-107" vertex="1">
          <mxGeometry x="28" width="152" height="30" as="geometry">
            <mxRectangle width="152" height="30" as="alternateBounds" />
          </mxGeometry>
        </mxCell>
        <mxCell id="7bIyxyWzbEFd4Pbs0qf7-58" style="shape=tableRow;horizontal=0;startSize=0;swimlaneHead=0;swimlaneBody=0;fillColor=none;collapsible=0;dropTarget=0;points=[[0,0.5],[1,0.5]];portConstraint=eastwest;top=0;left=0;right=0;bottom=0;" parent="9vlINu2ijhQBHvUozJI8-100" vertex="1">
          <mxGeometry y="170" width="180" height="30" as="geometry" />
        </mxCell>
        <mxCell id="7bIyxyWzbEFd4Pbs0qf7-59" value="LK" style="shape=partialRectangle;connectable=0;fillColor=none;top=0;left=0;bottom=0;right=0;editable=1;overflow=hidden;whiteSpace=wrap;html=1;" parent="7bIyxyWzbEFd4Pbs0qf7-58" vertex="1">
          <mxGeometry width="28" height="30" as="geometry">
            <mxRectangle width="28" height="30" as="alternateBounds" />
          </mxGeometry>
        </mxCell>
        <mxCell id="7bIyxyWzbEFd4Pbs0qf7-60" value="country_id" style="shape=partialRectangle;connectable=0;fillColor=none;top=0;left=0;bottom=0;right=0;align=left;spacingLeft=6;overflow=hidden;whiteSpace=wrap;html=1;" parent="7bIyxyWzbEFd4Pbs0qf7-58" vertex="1">
          <mxGeometry x="28" width="152" height="30" as="geometry">
            <mxRectangle width="152" height="30" as="alternateBounds" />
          </mxGeometry>
        </mxCell>
        <mxCell id="9vlINu2ijhQBHvUozJI8-110" value="" style="shape=tableRow;horizontal=0;startSize=0;swimlaneHead=0;swimlaneBody=0;fillColor=none;collapsible=0;dropTarget=0;points=[[0,0.5],[1,0.5]];portConstraint=eastwest;top=0;left=0;right=0;bottom=0;" parent="9vlINu2ijhQBHvUozJI8-100" vertex="1">
          <mxGeometry y="200" width="180" height="30" as="geometry" />
        </mxCell>
        <mxCell id="9vlINu2ijhQBHvUozJI8-111" value="" style="shape=partialRectangle;connectable=0;fillColor=none;top=0;left=0;bottom=0;right=0;editable=1;overflow=hidden;whiteSpace=wrap;html=1;" parent="9vlINu2ijhQBHvUozJI8-110" vertex="1">
          <mxGeometry width="28" height="30" as="geometry">
            <mxRectangle width="28" height="30" as="alternateBounds" />
          </mxGeometry>
        </mxCell>
        <mxCell id="9vlINu2ijhQBHvUozJI8-112" value="country" style="shape=partialRectangle;connectable=0;fillColor=none;top=0;left=0;bottom=0;right=0;align=left;spacingLeft=6;overflow=hidden;whiteSpace=wrap;html=1;" parent="9vlINu2ijhQBHvUozJI8-110" vertex="1">
          <mxGeometry x="28" width="152" height="30" as="geometry">
            <mxRectangle width="152" height="30" as="alternateBounds" />
          </mxGeometry>
        </mxCell>
        <mxCell id="7bIyxyWzbEFd4Pbs0qf7-68" style="shape=tableRow;horizontal=0;startSize=0;swimlaneHead=0;swimlaneBody=0;fillColor=none;collapsible=0;dropTarget=0;points=[[0,0.5],[1,0.5]];portConstraint=eastwest;top=0;left=0;right=0;bottom=0;" parent="9vlINu2ijhQBHvUozJI8-100" vertex="1">
          <mxGeometry y="230" width="180" height="30" as="geometry" />
        </mxCell>
        <mxCell id="7bIyxyWzbEFd4Pbs0qf7-69" value="LK" style="shape=partialRectangle;connectable=0;fillColor=none;top=0;left=0;bottom=0;right=0;editable=1;overflow=hidden;whiteSpace=wrap;html=1;" parent="7bIyxyWzbEFd4Pbs0qf7-68" vertex="1">
          <mxGeometry width="28" height="30" as="geometry">
            <mxRectangle width="28" height="30" as="alternateBounds" />
          </mxGeometry>
        </mxCell>
        <mxCell id="7bIyxyWzbEFd4Pbs0qf7-70" value="region_id" style="shape=partialRectangle;connectable=0;fillColor=none;top=0;left=0;bottom=0;right=0;align=left;spacingLeft=6;overflow=hidden;whiteSpace=wrap;html=1;" parent="7bIyxyWzbEFd4Pbs0qf7-68" vertex="1">
          <mxGeometry x="28" width="152" height="30" as="geometry">
            <mxRectangle width="152" height="30" as="alternateBounds" />
          </mxGeometry>
        </mxCell>
        <mxCell id="9vlINu2ijhQBHvUozJI8-145" style="shape=tableRow;horizontal=0;startSize=0;swimlaneHead=0;swimlaneBody=0;fillColor=none;collapsible=0;dropTarget=0;points=[[0,0.5],[1,0.5]];portConstraint=eastwest;top=0;left=0;right=0;bottom=0;" parent="9vlINu2ijhQBHvUozJI8-100" vertex="1">
          <mxGeometry y="260" width="180" height="30" as="geometry" />
        </mxCell>
        <mxCell id="9vlINu2ijhQBHvUozJI8-146" style="shape=partialRectangle;connectable=0;fillColor=none;top=0;left=0;bottom=0;right=0;editable=1;overflow=hidden;whiteSpace=wrap;html=1;" parent="9vlINu2ijhQBHvUozJI8-145" vertex="1">
          <mxGeometry width="28" height="30" as="geometry">
            <mxRectangle width="28" height="30" as="alternateBounds" />
          </mxGeometry>
        </mxCell>
        <mxCell id="9vlINu2ijhQBHvUozJI8-147" value="region" style="shape=partialRectangle;connectable=0;fillColor=none;top=0;left=0;bottom=0;right=0;align=left;spacingLeft=6;overflow=hidden;whiteSpace=wrap;html=1;" parent="9vlINu2ijhQBHvUozJI8-145" vertex="1">
          <mxGeometry x="28" width="152" height="30" as="geometry">
            <mxRectangle width="152" height="30" as="alternateBounds" />
          </mxGeometry>
        </mxCell>
        <mxCell id="crPJ7tFQ0Vz0llvzbCSS-6" style="shape=tableRow;horizontal=0;startSize=0;swimlaneHead=0;swimlaneBody=0;fillColor=none;collapsible=0;dropTarget=0;points=[[0,0.5],[1,0.5]];portConstraint=eastwest;top=0;left=0;right=0;bottom=0;" parent="9vlINu2ijhQBHvUozJI8-100" vertex="1">
          <mxGeometry y="290" width="180" height="30" as="geometry" />
        </mxCell>
        <mxCell id="crPJ7tFQ0Vz0llvzbCSS-7" value="LK" style="shape=partialRectangle;connectable=0;fillColor=none;top=0;left=0;bottom=0;right=0;editable=1;overflow=hidden;whiteSpace=wrap;html=1;" parent="crPJ7tFQ0Vz0llvzbCSS-6" vertex="1">
          <mxGeometry width="28" height="30" as="geometry">
            <mxRectangle width="28" height="30" as="alternateBounds" />
          </mxGeometry>
        </mxCell>
        <mxCell id="crPJ7tFQ0Vz0llvzbCSS-8" value="market_id" style="shape=partialRectangle;connectable=0;fillColor=none;top=0;left=0;bottom=0;right=0;align=left;spacingLeft=6;overflow=hidden;whiteSpace=wrap;html=1;" parent="crPJ7tFQ0Vz0llvzbCSS-6" vertex="1">
          <mxGeometry x="28" width="152" height="30" as="geometry">
            <mxRectangle width="152" height="30" as="alternateBounds" />
          </mxGeometry>
        </mxCell>
        <mxCell id="7bIyxyWzbEFd4Pbs0qf7-74" style="shape=tableRow;horizontal=0;startSize=0;swimlaneHead=0;swimlaneBody=0;fillColor=none;collapsible=0;dropTarget=0;points=[[0,0.5],[1,0.5]];portConstraint=eastwest;top=0;left=0;right=0;bottom=0;" parent="9vlINu2ijhQBHvUozJI8-100" vertex="1">
          <mxGeometry y="320" width="180" height="30" as="geometry" />
        </mxCell>
        <mxCell id="7bIyxyWzbEFd4Pbs0qf7-75" style="shape=partialRectangle;connectable=0;fillColor=none;top=0;left=0;bottom=0;right=0;editable=1;overflow=hidden;whiteSpace=wrap;html=1;" parent="7bIyxyWzbEFd4Pbs0qf7-74" vertex="1">
          <mxGeometry width="28" height="30" as="geometry">
            <mxRectangle width="28" height="30" as="alternateBounds" />
          </mxGeometry>
        </mxCell>
        <mxCell id="7bIyxyWzbEFd4Pbs0qf7-76" value="market" style="shape=partialRectangle;connectable=0;fillColor=none;top=0;left=0;bottom=0;right=0;align=left;spacingLeft=6;overflow=hidden;whiteSpace=wrap;html=1;" parent="7bIyxyWzbEFd4Pbs0qf7-74" vertex="1">
          <mxGeometry x="28" width="152" height="30" as="geometry">
            <mxRectangle width="152" height="30" as="alternateBounds" />
          </mxGeometry>
        </mxCell>
        <mxCell id="9vlINu2ijhQBHvUozJI8-126" value="Customer" style="shape=table;startSize=30;container=1;collapsible=1;childLayout=tableLayout;fixedRows=1;rowLines=0;fontStyle=1;align=center;resizeLast=1;html=1;" parent="WIyWlLk6GJQsqaUBKTNV-1" vertex="1">
          <mxGeometry x="1041" y="289" width="180" height="330" as="geometry" />
        </mxCell>
        <mxCell id="9vlINu2ijhQBHvUozJI8-127" value="" style="shape=tableRow;horizontal=0;startSize=0;swimlaneHead=0;swimlaneBody=0;fillColor=none;collapsible=0;dropTarget=0;points=[[0,0.5],[1,0.5]];portConstraint=eastwest;top=0;left=0;right=0;bottom=1;" parent="9vlINu2ijhQBHvUozJI8-126" vertex="1">
          <mxGeometry y="30" width="180" height="30" as="geometry" />
        </mxCell>
        <mxCell id="9vlINu2ijhQBHvUozJI8-128" value="PK" style="shape=partialRectangle;connectable=0;fillColor=none;top=0;left=0;bottom=0;right=0;fontStyle=1;overflow=hidden;whiteSpace=wrap;html=1;" parent="9vlINu2ijhQBHvUozJI8-127" vertex="1">
          <mxGeometry width="30" height="30" as="geometry">
            <mxRectangle width="30" height="30" as="alternateBounds" />
          </mxGeometry>
        </mxCell>
        <mxCell id="9vlINu2ijhQBHvUozJI8-129" value="customer_id" style="shape=partialRectangle;connectable=0;fillColor=none;top=0;left=0;bottom=0;right=0;align=left;spacingLeft=6;fontStyle=5;overflow=hidden;whiteSpace=wrap;html=1;" parent="9vlINu2ijhQBHvUozJI8-127" vertex="1">
          <mxGeometry x="30" width="150" height="30" as="geometry">
            <mxRectangle width="150" height="30" as="alternateBounds" />
          </mxGeometry>
        </mxCell>
        <mxCell id="9vlINu2ijhQBHvUozJI8-136" value="" style="shape=tableRow;horizontal=0;startSize=0;swimlaneHead=0;swimlaneBody=0;fillColor=none;collapsible=0;dropTarget=0;points=[[0,0.5],[1,0.5]];portConstraint=eastwest;top=0;left=0;right=0;bottom=0;" parent="9vlINu2ijhQBHvUozJI8-126" vertex="1">
          <mxGeometry y="60" width="180" height="30" as="geometry" />
        </mxCell>
        <mxCell id="9vlINu2ijhQBHvUozJI8-137" value="" style="shape=partialRectangle;connectable=0;fillColor=none;top=0;left=0;bottom=0;right=0;editable=1;overflow=hidden;whiteSpace=wrap;html=1;" parent="9vlINu2ijhQBHvUozJI8-136" vertex="1">
          <mxGeometry width="30" height="30" as="geometry">
            <mxRectangle width="30" height="30" as="alternateBounds" />
          </mxGeometry>
        </mxCell>
        <mxCell id="9vlINu2ijhQBHvUozJI8-138" value="first_name" style="shape=partialRectangle;connectable=0;fillColor=none;top=0;left=0;bottom=0;right=0;align=left;spacingLeft=6;overflow=hidden;whiteSpace=wrap;html=1;" parent="9vlINu2ijhQBHvUozJI8-136" vertex="1">
          <mxGeometry x="30" width="150" height="30" as="geometry">
            <mxRectangle width="150" height="30" as="alternateBounds" />
          </mxGeometry>
        </mxCell>
        <mxCell id="9vlINu2ijhQBHvUozJI8-151" style="shape=tableRow;horizontal=0;startSize=0;swimlaneHead=0;swimlaneBody=0;fillColor=none;collapsible=0;dropTarget=0;points=[[0,0.5],[1,0.5]];portConstraint=eastwest;top=0;left=0;right=0;bottom=0;" parent="9vlINu2ijhQBHvUozJI8-126" vertex="1">
          <mxGeometry y="90" width="180" height="30" as="geometry" />
        </mxCell>
        <mxCell id="9vlINu2ijhQBHvUozJI8-152" style="shape=partialRectangle;connectable=0;fillColor=none;top=0;left=0;bottom=0;right=0;editable=1;overflow=hidden;whiteSpace=wrap;html=1;" parent="9vlINu2ijhQBHvUozJI8-151" vertex="1">
          <mxGeometry width="30" height="30" as="geometry">
            <mxRectangle width="30" height="30" as="alternateBounds" />
          </mxGeometry>
        </mxCell>
        <mxCell id="9vlINu2ijhQBHvUozJI8-153" value="last_name" style="shape=partialRectangle;connectable=0;fillColor=none;top=0;left=0;bottom=0;right=0;align=left;spacingLeft=6;overflow=hidden;whiteSpace=wrap;html=1;" parent="9vlINu2ijhQBHvUozJI8-151" vertex="1">
          <mxGeometry x="30" width="150" height="30" as="geometry">
            <mxRectangle width="150" height="30" as="alternateBounds" />
          </mxGeometry>
        </mxCell>
        <mxCell id="crPJ7tFQ0Vz0llvzbCSS-0" style="shape=tableRow;horizontal=0;startSize=0;swimlaneHead=0;swimlaneBody=0;fillColor=none;collapsible=0;dropTarget=0;points=[[0,0.5],[1,0.5]];portConstraint=eastwest;top=0;left=0;right=0;bottom=0;" parent="9vlINu2ijhQBHvUozJI8-126" vertex="1">
          <mxGeometry y="120" width="180" height="30" as="geometry" />
        </mxCell>
        <mxCell id="crPJ7tFQ0Vz0llvzbCSS-1" style="shape=partialRectangle;connectable=0;fillColor=none;top=0;left=0;bottom=0;right=0;editable=1;overflow=hidden;whiteSpace=wrap;html=1;" parent="crPJ7tFQ0Vz0llvzbCSS-0" vertex="1">
          <mxGeometry width="30" height="30" as="geometry">
            <mxRectangle width="30" height="30" as="alternateBounds" />
          </mxGeometry>
        </mxCell>
        <mxCell id="crPJ7tFQ0Vz0llvzbCSS-2" value="country" style="shape=partialRectangle;connectable=0;fillColor=none;top=0;left=0;bottom=0;right=0;align=left;spacingLeft=6;overflow=hidden;whiteSpace=wrap;html=1;fontStyle=0" parent="crPJ7tFQ0Vz0llvzbCSS-0" vertex="1">
          <mxGeometry x="30" width="150" height="30" as="geometry">
            <mxRectangle width="150" height="30" as="alternateBounds" />
          </mxGeometry>
        </mxCell>
        <mxCell id="9vlINu2ijhQBHvUozJI8-133" value="" style="shape=tableRow;horizontal=0;startSize=0;swimlaneHead=0;swimlaneBody=0;fillColor=none;collapsible=0;dropTarget=0;points=[[0,0.5],[1,0.5]];portConstraint=eastwest;top=0;left=0;right=0;bottom=0;" parent="9vlINu2ijhQBHvUozJI8-126" vertex="1">
          <mxGeometry y="150" width="180" height="30" as="geometry" />
        </mxCell>
        <mxCell id="9vlINu2ijhQBHvUozJI8-134" value="" style="shape=partialRectangle;connectable=0;fillColor=none;top=0;left=0;bottom=0;right=0;editable=1;overflow=hidden;whiteSpace=wrap;html=1;" parent="9vlINu2ijhQBHvUozJI8-133" vertex="1">
          <mxGeometry width="30" height="30" as="geometry">
            <mxRectangle width="30" height="30" as="alternateBounds" />
          </mxGeometry>
        </mxCell>
        <mxCell id="9vlINu2ijhQBHvUozJI8-135" value="city" style="shape=partialRectangle;connectable=0;fillColor=none;top=0;left=0;bottom=0;right=0;align=left;spacingLeft=6;overflow=hidden;whiteSpace=wrap;html=1;" parent="9vlINu2ijhQBHvUozJI8-133" vertex="1">
          <mxGeometry x="30" width="150" height="30" as="geometry">
            <mxRectangle width="150" height="30" as="alternateBounds" />
          </mxGeometry>
        </mxCell>
        <mxCell id="9vlINu2ijhQBHvUozJI8-163" style="shape=tableRow;horizontal=0;startSize=0;swimlaneHead=0;swimlaneBody=0;fillColor=none;collapsible=0;dropTarget=0;points=[[0,0.5],[1,0.5]];portConstraint=eastwest;top=0;left=0;right=0;bottom=0;" parent="9vlINu2ijhQBHvUozJI8-126" vertex="1">
          <mxGeometry y="180" width="180" height="30" as="geometry" />
        </mxCell>
        <mxCell id="9vlINu2ijhQBHvUozJI8-164" style="shape=partialRectangle;connectable=0;fillColor=none;top=0;left=0;bottom=0;right=0;editable=1;overflow=hidden;whiteSpace=wrap;html=1;" parent="9vlINu2ijhQBHvUozJI8-163" vertex="1">
          <mxGeometry width="30" height="30" as="geometry">
            <mxRectangle width="30" height="30" as="alternateBounds" />
          </mxGeometry>
        </mxCell>
        <mxCell id="9vlINu2ijhQBHvUozJI8-165" value="zip_code" style="shape=partialRectangle;connectable=0;fillColor=none;top=0;left=0;bottom=0;right=0;align=left;spacingLeft=6;overflow=hidden;whiteSpace=wrap;html=1;" parent="9vlINu2ijhQBHvUozJI8-163" vertex="1">
          <mxGeometry x="30" width="150" height="30" as="geometry">
            <mxRectangle width="150" height="30" as="alternateBounds" />
          </mxGeometry>
        </mxCell>
        <mxCell id="9vlINu2ijhQBHvUozJI8-169" style="shape=tableRow;horizontal=0;startSize=0;swimlaneHead=0;swimlaneBody=0;fillColor=none;collapsible=0;dropTarget=0;points=[[0,0.5],[1,0.5]];portConstraint=eastwest;top=0;left=0;right=0;bottom=0;fontStyle=1" parent="9vlINu2ijhQBHvUozJI8-126" vertex="1">
          <mxGeometry y="210" width="180" height="30" as="geometry" />
        </mxCell>
        <mxCell id="9vlINu2ijhQBHvUozJI8-170" style="shape=partialRectangle;connectable=0;fillColor=none;top=0;left=0;bottom=0;right=0;editable=1;overflow=hidden;whiteSpace=wrap;html=1;" parent="9vlINu2ijhQBHvUozJI8-169" vertex="1">
          <mxGeometry width="30" height="30" as="geometry">
            <mxRectangle width="30" height="30" as="alternateBounds" />
          </mxGeometry>
        </mxCell>
        <mxCell id="9vlINu2ijhQBHvUozJI8-171" value="latitude" style="shape=partialRectangle;connectable=0;fillColor=none;top=0;left=0;bottom=0;right=0;align=left;spacingLeft=6;overflow=hidden;whiteSpace=wrap;html=1;fontStyle=0" parent="9vlINu2ijhQBHvUozJI8-169" vertex="1">
          <mxGeometry x="30" width="150" height="30" as="geometry">
            <mxRectangle width="150" height="30" as="alternateBounds" />
          </mxGeometry>
        </mxCell>
        <mxCell id="9vlINu2ijhQBHvUozJI8-166" style="shape=tableRow;horizontal=0;startSize=0;swimlaneHead=0;swimlaneBody=0;fillColor=none;collapsible=0;dropTarget=0;points=[[0,0.5],[1,0.5]];portConstraint=eastwest;top=0;left=0;right=0;bottom=0;" parent="9vlINu2ijhQBHvUozJI8-126" vertex="1">
          <mxGeometry y="240" width="180" height="30" as="geometry" />
        </mxCell>
        <mxCell id="9vlINu2ijhQBHvUozJI8-167" style="shape=partialRectangle;connectable=0;fillColor=none;top=0;left=0;bottom=0;right=0;editable=1;overflow=hidden;whiteSpace=wrap;html=1;" parent="9vlINu2ijhQBHvUozJI8-166" vertex="1">
          <mxGeometry width="30" height="30" as="geometry">
            <mxRectangle width="30" height="30" as="alternateBounds" />
          </mxGeometry>
        </mxCell>
        <mxCell id="9vlINu2ijhQBHvUozJI8-168" value="longitude" style="shape=partialRectangle;connectable=0;fillColor=none;top=0;left=0;bottom=0;right=0;align=left;spacingLeft=6;overflow=hidden;whiteSpace=wrap;html=1;fontStyle=0" parent="9vlINu2ijhQBHvUozJI8-166" vertex="1">
          <mxGeometry x="30" width="150" height="30" as="geometry">
            <mxRectangle width="150" height="30" as="alternateBounds" />
          </mxGeometry>
        </mxCell>
        <mxCell id="8LSA0JV7mJ2hiwA9IjpK-6" style="shape=tableRow;horizontal=0;startSize=0;swimlaneHead=0;swimlaneBody=0;fillColor=none;collapsible=0;dropTarget=0;points=[[0,0.5],[1,0.5]];portConstraint=eastwest;top=0;left=0;right=0;bottom=0;" parent="9vlINu2ijhQBHvUozJI8-126" vertex="1">
          <mxGeometry y="270" width="180" height="30" as="geometry" />
        </mxCell>
        <mxCell id="8LSA0JV7mJ2hiwA9IjpK-7" value="LK" style="shape=partialRectangle;connectable=0;fillColor=none;top=0;left=0;bottom=0;right=0;editable=1;overflow=hidden;whiteSpace=wrap;html=1;" parent="8LSA0JV7mJ2hiwA9IjpK-6" vertex="1">
          <mxGeometry width="30" height="30" as="geometry">
            <mxRectangle width="30" height="30" as="alternateBounds" />
          </mxGeometry>
        </mxCell>
        <mxCell id="8LSA0JV7mJ2hiwA9IjpK-8" value="segment_id" style="shape=partialRectangle;connectable=0;fillColor=none;top=0;left=0;bottom=0;right=0;align=left;spacingLeft=6;overflow=hidden;whiteSpace=wrap;html=1;fontStyle=0" parent="8LSA0JV7mJ2hiwA9IjpK-6" vertex="1">
          <mxGeometry x="30" width="150" height="30" as="geometry">
            <mxRectangle width="150" height="30" as="alternateBounds" />
          </mxGeometry>
        </mxCell>
        <mxCell id="8LSA0JV7mJ2hiwA9IjpK-3" style="shape=tableRow;horizontal=0;startSize=0;swimlaneHead=0;swimlaneBody=0;fillColor=none;collapsible=0;dropTarget=0;points=[[0,0.5],[1,0.5]];portConstraint=eastwest;top=0;left=0;right=0;bottom=0;" parent="9vlINu2ijhQBHvUozJI8-126" vertex="1">
          <mxGeometry y="300" width="180" height="30" as="geometry" />
        </mxCell>
        <mxCell id="8LSA0JV7mJ2hiwA9IjpK-4" style="shape=partialRectangle;connectable=0;fillColor=none;top=0;left=0;bottom=0;right=0;editable=1;overflow=hidden;whiteSpace=wrap;html=1;" parent="8LSA0JV7mJ2hiwA9IjpK-3" vertex="1">
          <mxGeometry width="30" height="30" as="geometry">
            <mxRectangle width="30" height="30" as="alternateBounds" />
          </mxGeometry>
        </mxCell>
        <mxCell id="8LSA0JV7mJ2hiwA9IjpK-5" value="segment" style="shape=partialRectangle;connectable=0;fillColor=none;top=0;left=0;bottom=0;right=0;align=left;spacingLeft=6;overflow=hidden;whiteSpace=wrap;html=1;fontStyle=0" parent="8LSA0JV7mJ2hiwA9IjpK-3" vertex="1">
          <mxGeometry x="30" width="150" height="30" as="geometry">
            <mxRectangle width="150" height="30" as="alternateBounds" />
          </mxGeometry>
        </mxCell>
        <mxCell id="9vlINu2ijhQBHvUozJI8-333" value="" style="endArrow=block;endFill=1;html=1;edgeStyle=orthogonalEdgeStyle;align=left;verticalAlign=top;rounded=0;exitX=0;exitY=0.5;exitDx=0;exitDy=0;entryX=1;entryY=0.5;entryDx=0;entryDy=0;" parent="WIyWlLk6GJQsqaUBKTNV-1" source="9vlINu2ijhQBHvUozJI8-220" target="7bIyxyWzbEFd4Pbs0qf7-61" edge="1">
          <mxGeometry x="-1" relative="1" as="geometry">
            <mxPoint x="1360" y="520" as="sourcePoint" />
            <mxPoint x="1400" y="415" as="targetPoint" />
          </mxGeometry>
        </mxCell>
        <mxCell id="9vlINu2ijhQBHvUozJI8-374" value="&lt;font style=&quot;font-size: 48px;&quot;&gt;Dimentional Model&lt;br&gt;Supply chain DATA Co&lt;br&gt;&lt;/font&gt;" style="text;html=1;align=center;verticalAlign=middle;resizable=0;points=[];autosize=1;strokeColor=none;fillColor=none;" parent="WIyWlLk6GJQsqaUBKTNV-1" vertex="1">
          <mxGeometry x="1440" y="-37" width="500" height="130" as="geometry" />
        </mxCell>
        <mxCell id="9vlINu2ijhQBHvUozJI8-375" value="&lt;font style=&quot;font-size: 18px;&quot;&gt;Star schema&lt;br&gt;Fact tables are market by color (yellow)&lt;/font&gt;" style="text;html=1;align=center;verticalAlign=middle;resizable=0;points=[];autosize=1;strokeColor=none;fillColor=none;" parent="WIyWlLk6GJQsqaUBKTNV-1" vertex="1">
          <mxGeometry x="1527" y="84" width="340" height="60" as="geometry" />
        </mxCell>
        <mxCell id="7bIyxyWzbEFd4Pbs0qf7-40" value="" style="line;strokeWidth=1;fillColor=none;align=left;verticalAlign=middle;spacingTop=-1;spacingLeft=3;spacingRight=3;rotatable=0;labelPosition=right;points=[];portConstraint=eastwest;strokeColor=inherit;" parent="WIyWlLk6GJQsqaUBKTNV-1" vertex="1">
          <mxGeometry x="1316" y="395" width="180" height="8" as="geometry" />
        </mxCell>
        <mxCell id="7bIyxyWzbEFd4Pbs0qf7-57" value="" style="line;strokeWidth=1;fillColor=none;align=left;verticalAlign=middle;spacingTop=-1;spacingLeft=3;spacingRight=3;rotatable=0;labelPosition=right;points=[];portConstraint=eastwest;strokeColor=inherit;" parent="WIyWlLk6GJQsqaUBKTNV-1" vertex="1">
          <mxGeometry x="1318" y="514" width="180" height="8" as="geometry" />
        </mxCell>
        <mxCell id="7bIyxyWzbEFd4Pbs0qf7-67" value="" style="line;strokeWidth=1;fillColor=none;align=left;verticalAlign=middle;spacingTop=-1;spacingLeft=3;spacingRight=3;rotatable=0;labelPosition=right;points=[];portConstraint=eastwest;strokeColor=inherit;" parent="WIyWlLk6GJQsqaUBKTNV-1" vertex="1">
          <mxGeometry x="1317" y="452" width="180" height="8" as="geometry" />
        </mxCell>
        <mxCell id="7bIyxyWzbEFd4Pbs0qf7-73" value="" style="line;strokeWidth=1;fillColor=none;align=left;verticalAlign=middle;spacingTop=-1;spacingLeft=3;spacingRight=3;rotatable=0;labelPosition=right;points=[];portConstraint=eastwest;strokeColor=inherit;" parent="WIyWlLk6GJQsqaUBKTNV-1" vertex="1">
          <mxGeometry x="1318" y="575" width="180" height="8" as="geometry" />
        </mxCell>
        <mxCell id="crPJ7tFQ0Vz0llvzbCSS-21" value="" style="edgeStyle=orthogonalEdgeStyle;rounded=0;orthogonalLoop=1;jettySize=auto;html=1;entryX=0;entryY=0.5;entryDx=0;entryDy=0;exitX=1;exitY=0.5;exitDx=0;exitDy=0;" parent="WIyWlLk6GJQsqaUBKTNV-1" source="9vlINu2ijhQBHvUozJI8-220" target="9vlINu2ijhQBHvUozJI8-94" edge="1">
          <mxGeometry relative="1" as="geometry">
            <mxPoint x="1980" y="515" as="targetPoint" />
            <mxPoint x="1840" y="486" as="sourcePoint" />
          </mxGeometry>
        </mxCell>
        <mxCell id="8LSA0JV7mJ2hiwA9IjpK-9" value="" style="line;strokeWidth=1;fillColor=none;align=left;verticalAlign=middle;spacingTop=-1;spacingLeft=3;spacingRight=3;rotatable=0;labelPosition=right;points=[];portConstraint=eastwest;strokeColor=inherit;" parent="WIyWlLk6GJQsqaUBKTNV-1" vertex="1">
          <mxGeometry x="1041" y="555" width="180" height="8" as="geometry" />
        </mxCell>
        <mxCell id="8LSA0JV7mJ2hiwA9IjpK-13" style="edgeStyle=orthogonalEdgeStyle;rounded=0;orthogonalLoop=1;jettySize=auto;html=1;exitX=0;exitY=0.5;exitDx=0;exitDy=0;entryX=0.5;entryY=0;entryDx=0;entryDy=0;" parent="WIyWlLk6GJQsqaUBKTNV-1" source="crPJ7tFQ0Vz0llvzbCSS-15" target="9vlINu2ijhQBHvUozJI8-126" edge="1">
          <mxGeometry relative="1" as="geometry" />
        </mxCell>
        <mxCell id="YWH9-gK1w81kQDjYmLFV-0" style="edgeStyle=orthogonalEdgeStyle;rounded=0;orthogonalLoop=1;jettySize=auto;html=1;exitX=0;exitY=0.5;exitDx=0;exitDy=0;entryX=1;entryY=0.5;entryDx=0;entryDy=0;" parent="WIyWlLk6GJQsqaUBKTNV-1" source="9vlINu2ijhQBHvUozJI8-196" target="9vlINu2ijhQBHvUozJI8-104" edge="1">
          <mxGeometry relative="1" as="geometry" />
        </mxCell>
      </root>
    </mxGraphModel>
  </diagram>
</mxfile>
